<?xml version="1.0" encoding="UTF-8"?>
<svg width="2000px" height="1234px" viewBox="0 0 2000 1234" version="1.1" xmlns="http://www.w3.org/2000/svg">
    <g stroke="none" stroke-width="1" fill="none" fill-rule="evenodd">
        <g transform="translate(0.000000, 0.000000)">
            <circle fill="#EA001B" cx="617" cy="617" r="617"></circle>
            <circle fill="#F79E1B" cx="1383" cy="617" r="617"></circle>
            <path d="M1000,1234 C1170.25,1234 1321.85,1162.55 1427.85,1044.45 C1533.85,926.35 1587.95,766.1 1577.95,617 C1567.95,467.9 1495.8,312.5 1376.4,202.9 C1257,93.3 1099.35,36.4 936.95,36.4 C774.55,36.4 616.9,93.3 497.5,202.9 C378.1,312.5 305.95,467.9 295.95,617 C285.95,766.1 340.05,926.35 446.05,1044.45 C552.05,1162.55 703.65,1234 873.9,1234 L1000,1234 Z" fill="#FF5F00"></path>
        </g>
    </g>
</svg>