<?xml version="1.0" encoding="UTF-8"?>
<svg width="1000px" height="324px" viewBox="0 0 1000 324" version="1.1" xmlns="http://www.w3.org/2000/svg">
    <g stroke="none" stroke-width="1" fill="none" fill-rule="evenodd">
        <g fill="#1434CB" fill-rule="nonzero">
            <path d="M433.993,11.222 L386.002,311.005 L446.917,311.005 L494.908,11.222 L433.993,11.222 Z M350.135,11.222 L294.343,217.719 L285.6,174.371 L285.6,174.343 L256.358,46.795 C256.358,46.795 253.266,11.222 209.92,11.222 L98.242,11.222 L97,19.965 C97,19.965 134.161,27.463 175.357,51.379 L217.797,311.005 L281.681,311.005 L372.609,11.222 L350.135,11.222 Z M822.531,311.005 L879.824,11.222 L823.031,11.222 L765.737,311.005 L822.531,311.005 Z M711.186,11.222 L666.684,220.811 L661.83,197.821 L632.588,46.795 C632.588,46.795 629.496,11.222 586.15,11.222 L474.472,11.222 L473.23,19.965 C473.23,19.965 510.391,27.463 551.587,51.379 L594.027,311.005 L657.911,311.005 L733.66,11.222 L711.186,11.222 Z M902.084,245.611 C902.084,290.443 952.949,314.678 993.903,314.678 C1032.021,314.678 1050.376,301.19 1050.376,301.19 L1042.635,252.867 C1042.635,252.867 1023.037,262.853 1004.682,262.853 C974.197,262.853 964.211,244.498 964.211,244.498 L1053.468,244.498 L1061.21,201.152 C1061.21,201.152 1063.059,184.041 1063.059,175.056 C1063.059,130.224 1025.899,105.989 981.067,105.989 C928.959,105.989 887.856,147.092 887.856,208.894 C887.856,245.611 902.084,245.611 902.084,245.611 Z M976.213,157.814 C992.082,157.814 994.674,171.299 994.674,175.391 L935.457,175.391 C935.457,171.299 941.554,157.814 976.213,157.814 Z"></path>
        </g>
    </g>
</svg>