<?xml version="1.0" encoding="UTF-8"?>
<svg id="Capa_1" xmlns="http://www.w3.org/2000/svg" version="1.1" viewBox="0 0 300 300">
  <!-- Generator: Adobe Illustrator 29.1.0, SVG Export Plug-In . SVG Version: 2.1.0 Build 142)  -->
  <defs>
    <style>
      .st0 {
        fill: #8dc63f;
      }
    </style>
  </defs>
  <path class="st0" d="M263.2,184.6h-38.3c-5.3,0-9.6-3.6-9.6-8h0v-99.7c0-11.7-11.3-21.1-25.3-21.1h-9.6v-8c0-11.7-11.3-21.1-25.3-21.1h-34.8c-11.8,0-22,6.8-24.6,16.4-12.8-4.7-27.7,0-33.3,10.8-1.4,2.7-2.2,5.6-2.2,8.6v24.2c-12.9-4.4-27.7.7-33,11.5-1.2,2.5-1.9,5.3-1.9,8v102c0,34.7,33.1,65.7,80.1,64.8h32.3c25,0,49.2-7.3,68.4-20.8,11.6-8.2,18.2-9.1,64.9-29.1,15.3-6.4,13.9-19.9,13.9-20.1,0-10-9.7-18.2-21.7-18.2ZM41.1,208.1v-102c0-4.4,4.3-8,9.6-8s9.6,3.6,9.6,8v43.7c0,3.6,3.5,6.6,7.8,6.6s7.8-2.9,7.8-6.6V62.3c0-4.4,4.3-8,9.6-8s9.6,3.6,9.6,8c0,17,.1,70.4.1,87.4,0,3.6,3.5,6.6,7.8,6.6s7.8-2.9,7.8-6.6V47.8c-.1-4.4,4.1-8,9.4-8s9.6,3.6,9.6,8c0,54.7,0,32.3.1,102,0,3.6,3.5,6.6,7.8,6.6s7.8-2.9,7.8-6.6v-73.5c.4-4.4,5.1-7.6,10.3-7.2,4.9.4,8.6,3.8,8.7,7.9v99.7c0,11.7,11.3,21.1,25.3,21.1h38.3c3.4,0,6.1,2.3,6.1,5.1h0c0,.3.9,5.8-5.3,8.4-45.7,19.7-54.2,21.2-68,30.8-17,11.9-38.5,18.2-60.6,17.7-32.8-.7-59.5-23.9-59.5-51.7Z"/>
</svg>