<?xml version="1.0" encoding="UTF-8"?>
<svg xmlns="http://www.w3.org/2000/svg" version="1.1" viewBox="0 0 240 107">
  <!-- Generator: Adobe Illustrator 29.1.0, SVG Export Plug-In . SVG Version: 2.1.0 Build 142)  -->
  <defs>
    <style>
      .st0 {
        fill: #fff;
      }
    </style>
  </defs>
  <g id="Texto">
    <g>
      <path class="st0" d="M104.5,62.2c0,5,3.2,8.9,9.2,8.9s4.5-1.1,5.4-1.1,1.2.5,1.2,1.2c0,2-6.2,8.6-17,8.6s-15.1-5.5-15.1-13.6c0-11.7,9.2-21.9,9.2-25.9s-.6-1.6-1.6-1.6c-1.9,0-6.2,1.5-9.1,6.5-3.1,5.2-6.8,15.3-6.8,18.7s-.3,2.4-1.9,2.4c-4.7,0-11.2-1.2-11.2-4.8,0-6.6,19.4-45.8,19.4-53.4s.9-1.7,2.8-1.7c5.2,0,9.8,4.5,9.8,7.3,0,4.3-7.8,19.6-7.8,20.9s0,.3.3.3c.4,0,7.3-4.7,13.7-4.7s7.7,2.6,7.7,6.6c0,6.8-8.2,15.7-8.2,25.4Z"/>
      <path class="st0" d="M144.4,52.6c.8,0,1.6.8,1.6,1.7,0,1.8-5.7,12.2-21.4,12.2s-12.5-4.1-12.5-11.4c0-12.4,13.5-24.9,27.2-24.9s10.7,4,10.7,7.9c0,7.7-12.6,14.1-21.6,15.8.6,2.1,2.2,3.3,5.1,3.3,6.8,0,9.4-4.6,10.9-4.6ZM128.5,48.2c6.5-1.8,11.9-6.5,11.9-9.6s-.7-1.7-1.7-1.7c-3.2,0-8.6,5.2-10.2,11.3Z"/>
      <path class="st0" d="M182.4,52.6c.8,0,1.6.8,1.6,1.7,0,1.8-5.7,12.2-21.4,12.2s-12.5-4.1-12.5-11.4c0-12.4,13.5-24.9,27.2-24.9s10.7,4,10.7,7.9c0,7.7-12.6,14.1-21.6,15.8.6,2.1,2.2,3.3,5.1,3.3,6.8,0,9.4-4.6,10.9-4.6ZM166.5,48.2c6.5-1.8,11.9-6.5,11.9-9.6s-.7-1.7-1.7-1.7c-3.2,0-8.6,5.2-10.2,11.3Z"/>
      <path class="st0" d="M205.2,57c1.3,0,5.1-1.5,7-4.5,5.2-8.2,6.5-14.6,6.5-20.6s.7-1.7,1.9-1.7c7.3,0,11.6,4.1,11.6,7.3s-4,11.2-7.2,20.9c-5.4,16.3-10.6,40.4-29,40.4s-18.7-10.2-18.7-13.5.7-1.5,1.5-1.5c1.4,0,2.6,2.3,8.7,2.3,14.8,0,20.5-15.8,23.5-24.7,0-.3,0-.5,0-.7s0-.2-.2-.2c-1.1,0-6,5.8-15.3,5.8s-8-2.2-8-7.1c0-7.3,9-19.3,9-27.3s1-1.7,2.8-1.7c5,0,9.9,4.4,9.9,8.5s-5.9,11.5-5.9,16.5.7,1.8,1.8,1.8Z"/>
    </g>
  </g>
  <g id="Icono">
    <path class="st0" d="M76.9,69.5h-10.8c-1.5,0-2.7-1.2-2.7-2.7h0v-33.5c0-3.9-3.2-7.1-7.1-7.1h-2.7v-2.7c0-3.9-3.2-7.1-7.1-7.1h-9.8c-3.3,0-6.2,2.3-6.9,5.5-3.6-1.6-7.8,0-9.4,3.6-.4.9-.6,1.9-.6,2.9v8.1c-3.6-1.5-7.8.2-9.3,3.9-.4.9-.5,1.8-.5,2.7v34.3c0,11.7,9.3,22.1,22.5,21.8h9.1c7,0,13.8-2.5,19.2-7,3.3-2.7,5.1-3,18.2-9.8,4.3-2.2,3.9-6.7,3.9-6.8,0-3.4-2.7-6.1-6.1-6.1ZM14.5,77.4v-34.3c0-1.5,1.2-2.7,2.7-2.7s2.7,1.2,2.7,2.7v14.7c0,1.2,1,2.2,2.2,2.2s2.2-1,2.2-2.2v-29.4c0-1.5,1.2-2.7,2.7-2.7s2.7,1.2,2.7,2.7c0,5.7,0,23.6,0,29.4,0,1.2,1,2.2,2.2,2.2s2.2-1,2.2-2.2V23.5c0-1.5,1.2-2.7,2.7-2.7s2.7,1.2,2.7,2.7c0,18.4,0,10.9,0,34.3,0,1.2,1,2.2,2.2,2.2s2.2-1,2.2-2.2v-24.7c.1-1.5,1.4-2.6,2.9-2.4,1.4.1,2.4,1.3,2.4,2.6v33.5c0,3.9,3.2,7.1,7.1,7.1h10.8c.9,0,1.7.8,1.7,1.7h0c0,.1.2,1.9-1.5,2.8-12.9,6.6-15.2,7.1-19.1,10.4-4.8,4-10.8,6.1-17,6-9.2-.2-16.7-8-16.7-17.4Z"/>
  </g>
</svg>